#!OML:ASF H:\LiuWeirdWalks\Patient Classification 1\Patient 1\Session 1\male.ASF
:FULLY-SPECIFIED
:DEGREES
1204
root 2.17256 18.0971 5.02161 6.50148 3.1077 -6.39216
lowerback 1.80194 2.54109 4.41391
upperback -1.77034 3.6039 2.80418
thorax -2.74433 1.74021 0.271244
lowerneck -15.4897 0.314502 4.23777
upperneck 22.959 0.672811 -5.23798
head 9.86977 0.0875172 -2.46299
rclavicle -1.17034e-014 1.70955e-014
rhumerus -38.0679 -1.25214 -82.1974
rradius 39.1966
rwrist -9.91099
rhand -16.3873 -3.58647
rfingers 7.12502
rthumb 9.8265 -33.3372
lclavicle -1.17034e-014 1.70955e-014
lhumerus -39.9075 -2.38092 85.0008
lradius 38.5925
lwrist 12.9974
lhand -12.6381 -1.46433
lfingers 7.12502
lthumb 13.442 28.0819
rfemur 15.6406 -2.29195 25.4902
rtibia 15.1954
rfoot 6.98753 -6.31008
rtoes -26.3111
lfemur -24.6006 -3.75417 -16.6739
ltibia 34.0051
lfoot -9.90059 9.68428
ltoes -4.07738
1205
root 2.18655 18.099 5.06169 6.51339 2.98078 -6.30992
lowerback 1.78676 2.50388 4.31436
upperback -1.78791 3.55067 2.78867
thorax -2.76001 1.71511 0.312557
lowerneck -15.4337 0.313369 4.26089
upperneck 22.9677 0.668117 -5.24303
head 9.862 0.0872225 -2.46911
rclavicle 4.96962e-016 2.82274e-014
rhumerus -38.1952 -1.27278 -82.189
rradius 39.208
rwrist -9.91296
rhand -16.348 -3.6481
rfingers 7.12502
rthumb 9.86444 -33.397
lclavicle 4.96962e-016 2.82274e-014
lhumerus -39.8589 -2.48619 85.0394
lradius 38.5849
lwrist 12.9828
lhand -12.6374 -1.46353
lfingers 7.12502
lthumb 13.4427 28.0827
rfemur 15.3588 -2.30573 25.2969
rtibia 15.8251
rfoot 7.23887 -6.20769
rtoes -26.2447
lfemur -24.37 -3.71793 -16.821
ltibia 33.8959
lfoot -10.0389 9.79217
ltoes -3.97255
1206
root 2.20038 18.1008 5.10163 6.52153 2.84941 -6.22139
lowerback 1.77014 2.46332 4.20394
upperback -1.79989 3.49221 2.77091
thorax -2.76954 1.68777 0.358003
lowerneck -15.3944 0.318274 4.29017
upperneck 22.9959 0.669694 -5.24561
head 9.86469 0.0904821 -2.47511
rclavicle 3.2054e-015 -2.34566e-014
rhumerus -38.3241 -1.28892 -82.1847
rradius 39.2312
rwrist -9.90591
rhand -16.2918 -3.75229
rfingers 7.12502
rthumb 9.9186 -33.4986
lclavicle 3.2054e-015 -2.34566e-014
lhumerus -39.8273 -2.59355 85.0753
lradius 38.6148
lwrist 13.0011
lhand -12.6371 -1.40235
lfingers 7.12502
lthumb 13.443 28.1439
rfemur 15.0593 -2.32316 25.0979
rtibia 16.4885
rfoot 7.54242 -6.10494
rtoes -26.094
lfemur -24.1341 -3.66673 -16.9735
ltibia 33.7795
lfoot -10.1739 9.87798
ltoes -3.87914
1207
root 2.21444 18.1021 5.14221 6.51966 2.71396 -6.14251
lowerback 1.75188 2.42443 4.10718
upperback -1.8062 3.43601 2.75427
thorax -2.77137 1.66147 0.397216
lowerneck -15.3411 0.334913 4.36153
upperneck 22.9809 0.684734 -5.28386
head 9.85029 0.0996403 -2.49816
rclavicle -8.17502e-015 2.5842e-014
rhumerus -38.4445 -1.31097 -82.175
rradius 39.2447
rwrist -9.89262
rhand -16.2254 -3.87043
rfingers 7.12502
rthumb 9.98273 -33.6137
lclavicle -8.17502e-015 2.5842e-014
lhumerus -39.7967 -2.71177 85.1129
lradius 38.6596
lwrist 13.0454
lhand -12.6275 -1.32376
lfingers 7.12502
lthumb 13.4522 28.2218
rfemur 14.7601 -2.34891 24.9027
rtibia 17.1708
rfoot 7.88847 -6.00226
rtoes -25.8542
lfemur -23.8879 -3.5982 -17.1164
ltibia 33.6612
lfoot -10.309 9.94218
ltoes -3.79015
1208
root 2.22808 18.1034 5.1827 6.50921 2.57888 -6.08941
lowerback 1.74278 2.38437 4.03044
upperback -1.80769 3.37952 2.74869
thorax -2.77282 1.63478 0.43642
lowerneck -15.3202 0.355065 4.42817
upperneck 22.982 0.70562 -5.32336
head 9.84814 0.110591 -2.52069
rclavicle 8.44835e-015 -1.90833e-014
rhumerus -38.5568 -1.31997 -82.1595
rradius 39.2571
rwrist -9.88862
rhand -16.1658 -3.98875
rfingers 7.12502
rthumb 10.0402 -33.7292
lclavicle 8.44835e-015 -1.90833e-014
lhumerus -39.7525 -2.81323 85.1478
lradius 38.692
lwrist 13.0783
lhand -12.6121 -1.27096
lfingers 7.12502
lthumb 13.4671 28.2737
rfemur 14.4551 -2.37521 24.739
rtibia 17.8646
rfoot 8.28096 -5.90251
rtoes -25.5907
lfemur -23.6376 -3.51163 -17.2275
ltibia 33.5402
lfoot -10.4396 9.98127
ltoes -3.70982
1209
root 2.24146 18.1045 5.2234 6.489 2.43681 -6.0572
lowerback 1.73343 2.34622 3.96984
upperback -1.79913 3.32578 2.75136
thorax -2.76319 1.60945 0.475316
lowerneck -15.3373 0.371095 4.46926
upperneck 22.9849 0.722702 -5.34988
head 9.85356 0.11856 -2.53509
rclavicle -3.40419e-014 -2.3059e-014
rhumerus -38.6465 -1.33612 -82.1362
rradius 39.2456
rwrist -9.87762
rhand -16.1236 -4.06105
rfingers 7.12502
rthumb 10.0809 -33.7996
lclavicle -3.40419e-014 -2.3059e-014
lhumerus -39.6843 -2.89699 85.1785
lradius 38.7078
lwrist 13.0923
lhand -12.5924 -1.2636
lfingers 7.12502
lthumb 13.4861 28.2798
rfemur 14.1524 -2.39484 24.5961
rtibia 18.5655
rfoot 8.68919 -5.81852
rtoes -25.315
lfemur -23.3791 -3.40067 -17.3151
ltibia 33.4174
lfoot -10.5668 9.99949
ltoes -3.63911
1210
root 2.25509 18.1057 5.26458 6.46541 2.29211 -6.01368
lowerback 1.71209 2.30897 3.90123
upperback -1.77808 3.27154 2.7502
thorax -2.73399 1.58437 0.515556
lowerneck -15.4002 0.370285 4.43671
upperneck 23.0168 0.719924 -5.31794
head 9.87663 0.117086 -2.51981
rclavicle -2.98674e-014 2.0276e-014
rhumerus -38.7125 -1.36513 -82.1063
rradius 39.2151
rwrist -9.85951
rhand -16.1037 -4.08535
rfingers 7.12502
rthumb 10.1001 -33.8229
lclavicle -2.98674e-014 2.0276e-014
lhumerus -39.5782 -2.95739 85.2017
lradius 38.6914
lwrist 13.0692
lhand -12.5801 -1.29139
lfingers 7.12502
lthumb 13.4979 28.2512
rfemur 13.8427 -2.43122 24.428
rtibia 19.2829
rfoot 9.10708 -5.72111
rtoes -25.0455
lfemur -23.1124 -3.27391 -17.4193
ltibia 33.289
lfoot -10.6909 10.0056
ltoes -3.59124
1211
root 2.26807 18.1069 5.30544 6.43947 2.14767 -5.95771
lowerback 1.69898 2.26986 3.81252
upperback -1.761 3.21495 2.74708
thorax -2.71439 1.5583 0.564541
lowerneck -15.4047 0.376871 4.44672
upperneck 22.9444 0.726032 -5.32987
head 9.85213 0.118888 -2.52355
rclavicle -1.0635e-014 -3.93594e-014
rhumerus -38.7805 -1.39127 -82.0774
rradius 39.1716
rwrist -9.84573
rhand -16.124 -4.07361
rfingers 7.12502
rthumb 10.0806 -33.8122
lclavicle -1.0635e-014 -3.93594e-014
lhumerus -39.469 -3.00414 85.2195
lradius 38.6639
lwrist 13.0517
lhand -12.5849 -1.32846
lfingers 7.12502
lthumb 13.4933 28.2144
rfemur 13.5208 -2.46175 24.2472
rtibia 20.025
rfoot 9.51683 -5.64128
rtoes -24.8005
lfemur -22.8414 -3.13816 -17.5367
ltibia 33.1549
lfoot -10.8087 10.0034
ltoes -3.55165
1212
root 2.28103 18.108 5.34636 6.41058 1.99889 -5.88232
lowerback 1.68789 2.23016 3.70498
upperback -1.74463 3.15705 2.73769
thorax -2.69713 1.53183 0.617484
lowerneck -15.3951 0.374616 4.42136
upperneck 22.873 0.72153 -5.30965
head 9.82462 0.116557 -2.51121
rclavicle -3.50358e-015 -2.74323e-014
rhumerus -38.8513 -1.41849 -82.0475
rradius 39.1178
rwrist -9.83572
rhand -16.1598 -4.04421
rfingers 7.12502
rthumb 10.046 -33.7844
lclavicle -3.50358e-015 -2.74323e-014
lhumerus -39.3645 -3.03243 85.2312
lradius 38.6438
lwrist 13.0411
lhand -12.5918 -1.32434
lfingers 7.12502
lthumb 13.4866 28.219
rfemur 13.1821 -2.49441 24.0374
rtibia 20.804
rfoot 9.93133 -5.54484
rtoes -24.5502
lfemur -22.5577 -2.99366 -17.6801
ltibia 33.0134
lfoot -10.9228 10.0048
ltoes -3.54427
1213
root 2.29387 18.1093 5.38708 6.38467 1.84575 -5.78549
lowerback 1.68174 2.19195 3.57498
upperback -1.73579 3.10105 2.72235
thorax -2.69102 1.50646 0.676342
lowerneck -15.3386 0.376123 4.42193
upperneck 22.7511 0.721856 -5.31433
head 9.77068 0.116353 -2.5101
rclavicle 3.62037e-014 9.93923e-015
rhumerus -38.9391 -1.45861 -82.0104
rradius 39.0739
rwrist -9.82676
rhand -16.1932 -4.0176
rfingers 7.12502
rthumb 10.0137 -33.7594
lclavicle 3.62037e-014 9.93923e-015
lhumerus -39.275 -3.0632 85.2442
lradius 38.6363
lwrist 13.0458
lhand -12.612 -1.30229
lfingers 7.12502
lthumb 13.4672 28.2423
rfemur 12.823 -2.52312 23.7972
rtibia 21.6177
rfoot 10.3562 -5.4256
rtoes -24.2434
lfemur -22.2706 -2.84364 -17.8509
ltibia 32.8678
lfoot -11.0342 10.013
ltoes -3.55916
1214
root 2.30649 18.1106 5.42692 6.36476 1.69426 -5.67612
lowerback 1.67743 2.15346 3.43354
upperback -1.72812 3.04444 2.70343
thorax -2.68734 1.48092 0.737834
lowerneck -15.2831 0.383436 4.44606
upperneck 22.6464 0.728953 -5.33587
head 9.72359 0.119455 -2.51842
rclavicle 1.06847e-015 3.61788e-014
rhumerus -39.0291 -1.51584 -81.9663
rradius 39.0413
rwrist -9.8161
rhand -16.2155 -3.98645
rfingers 7.12502
rthumb 9.99228 -33.7293
lclavicle 1.06847e-015 3.61788e-014
lhumerus -39.1809 -3.10482 85.2617
lradius 38.6339
lwrist 13.0632
lhand -12.6335 -1.27768
lfingers 7.12502
lthumb 13.4465 28.2683
rfemur 12.4385 -2.54744 23.5422
rtibia 22.4612
rfoot 10.7983 -5.28438
rtoes -23.9045
lfemur -21.9895 -2.70043 -18.0348
ltibia 32.7203
lfoot -11.1379 10.0307
ltoes -3.60619
